<?xml version="1.0" encoding="UTF-8" standalone="no"?>
<svg
   xmlns:dc="http://purl.org/dc/elements/1.1/"
   xmlns:cc="http://creativecommons.org/ns#"
   xmlns:rdf="http://www.w3.org/1999/02/22-rdf-syntax-ns#"
   xmlns:svg="http://www.w3.org/2000/svg"
   xmlns="http://www.w3.org/2000/svg"
   xmlns:sodipodi="http://sodipodi.sourceforge.net/DTD/sodipodi-0.dtd"
   xmlns:inkscape="http://www.inkscape.org/namespaces/inkscape"
   sodipodi:docname="GsD-logo.svg"
   inkscape:version="1.0.2 (e86c870879, 2021-01-15)"
   id="svg8"
   version="1.1"
   viewBox="0 0 12.699999 12.699999"
   height="47.999996"
   width="47.999996">
  <defs
     id="defs2" />
  <sodipodi:namedview
     inkscape:window-maximized="0"
     inkscape:window-y="55"
     inkscape:window-x="4"
     inkscape:window-height="984"
     inkscape:window-width="1306"
     showgrid="false"
     inkscape:document-rotation="0"
     inkscape:current-layer="layer2"
     inkscape:document-units="mm"
     inkscape:cy="37.889512"
     inkscape:cx="24.606669"
     inkscape:zoom="2.8"
     inkscape:pageshadow="2"
     inkscape:pageopacity="0.0"
     borderopacity="1.0"
     bordercolor="#666666"
     pagecolor="#ffffff"
     id="base"
     units="px"
     fit-margin-top="0"
     fit-margin-left="0"
     fit-margin-right="0"
     fit-margin-bottom="0" />
  <metadata
     id="metadata5">
    <rdf:RDF>
      <cc:Work
         rdf:about="">
        <dc:format>image/svg+xml</dc:format>
        <dc:type
           rdf:resource="http://purl.org/dc/dcmitype/StillImage" />
        <dc:title></dc:title>
      </cc:Work>
    </rdf:RDF>
  </metadata>
  <g
     id="layer1"
     inkscape:groupmode="layer"
     inkscape:label="Layer 1"
     transform="translate(2.3841858e-7,-12.7)">
    <rect
       inkscape:export-ydpi="599.93237"
       inkscape:export-xdpi="599.93237"
       ry="0"
       y="12.961523"
       x="0.26152277"
       height="12.176953"
       width="12.176953"
       id="rect833"
       style="fill:#a4c7d8;fill-opacity:1;stroke:#fffffe;stroke-width:0.523046;stroke-linecap:round;stroke-linejoin:miter;stroke-miterlimit:4;stroke-dasharray:none;stroke-dashoffset:12;stroke-opacity:0.980392;paint-order:stroke fill markers" />
  </g>
  <g
     inkscape:label="Layer 2"
     id="layer2"
     inkscape:groupmode="layer"
     transform="translate(2.3841858e-7,-12.7)">
    <g
       inkscape:export-ydpi="599.93237"
       inkscape:export-xdpi="599.93237"
       transform="matrix(0.26134256,0,0,0.2617035,-16.487,5.4071568)"
       style="font-style:normal;font-variant:normal;font-weight:normal;font-stretch:normal;font-size:24.5286px;line-height:1.25;font-family:'DejaVu Sans Mono';-inkscape-font-specification:'DejaVu Sans Mono';letter-spacing:0px;word-spacing:0px;fill:#000000;fill-opacity:1;stroke:none;stroke-width:0.5;stroke-linecap:round;stroke-linejoin:round;stroke-miterlimit:4;stroke-dasharray:0.5, 0.5;stroke-dashoffset:5;stroke-opacity:1;paint-order:stroke fill markers"
       id="text838"
       aria-label="GsD">
      <path
         id="path840"
         style="fill:#000000;fill-opacity:1;stroke:none;stroke-width:0.5;stroke-linecap:round;stroke-linejoin:round;stroke-miterlimit:4;stroke-dasharray:0.5, 0.5;stroke-dashoffset:5;stroke-opacity:1;paint-order:stroke fill markers"
         d="m 78.605528,70.493995 q -0.970125,0.898264 -2.191764,1.365361 -1.209663,0.455121 -2.622932,0.455121 -3.401427,0 -5.29377,-2.431302 -1.892343,-2.443279 -1.892343,-6.838785 0,-4.383529 1.916297,-6.826808 1.916297,-2.455255 5.329701,-2.455255 1.125824,0 2.155834,0.323375 1.030009,0.311398 1.988158,0.958149 v 2.479209 q -0.970126,-0.922218 -1.988158,-1.353385 -1.018033,-0.443144 -2.155834,-0.443144 -2.359441,0 -3.54515,1.832459 -1.173732,1.820482 -1.173732,5.4854 0,3.724802 1.137802,5.521331 1.149778,1.784551 3.521195,1.784551 0.80245,0 1.401292,-0.179653 0.61082,-0.191629 1.101871,-0.586865 v -4.80272 h -2.598978 v -1.988158 h 4.910511 z" />
      <path
         id="path842"
         style="fill:#000000;fill-opacity:1;stroke:none;stroke-width:0.5;stroke-linecap:round;stroke-linejoin:round;stroke-miterlimit:4;stroke-dasharray:0.5, 0.5;stroke-dashoffset:5;stroke-opacity:1;paint-order:stroke fill markers"
         d="m 91.792047,59.020167 v 2.155834 q -0.946172,-0.550936 -1.90432,-0.826403 -0.958149,-0.275468 -1.952228,-0.275468 -1.497107,0 -2.239672,0.491051 -0.730588,0.479074 -0.730588,1.473153 0,0.898265 0.550935,1.341408 0.550936,0.443144 2.7427,0.862334 l 0.886288,0.167676 q 1.640829,0.311398 2.479209,1.245593 0.850356,0.934195 0.850356,2.431302 0,1.988158 -1.413268,3.113982 -1.413269,1.113848 -3.928409,1.113848 -0.994079,0 -2.083973,-0.215584 -1.089894,-0.203606 -2.359441,-0.622796 v -2.275603 q 1.233616,0.634773 2.359441,0.958149 1.125824,0.311398 2.13188,0.311398 1.461177,0 2.263626,-0.586866 0.802449,-0.598843 0.802449,-1.664783 0,-1.533038 -2.934329,-2.119904 l -0.09582,-0.02395 -0.826403,-0.167676 q -1.90432,-0.371283 -2.778631,-1.245593 -0.87431,-0.886288 -0.87431,-2.407348 0,-1.928274 1.305477,-2.97026 1.305477,-1.053964 3.724802,-1.053964 1.077917,0 2.071996,0.203607 0.994079,0.191629 1.952228,0.586866 z" />
      <path
         id="path844"
         style="fill:#000000;fill-opacity:1;stroke:none;stroke-width:0.5;stroke-linecap:round;stroke-linejoin:round;stroke-miterlimit:4;stroke-dasharray:0.5, 0.5;stroke-dashoffset:5;stroke-opacity:1;paint-order:stroke fill markers"
         d="m 100.11596,69.97899 q 3.0541,0 4.26376,-1.497107 1.20966,-1.509084 1.20966,-5.437493 0,-3.964339 -1.20966,-5.461446 -1.19768,-1.509084 -4.26376,-1.509084 h -1.149777 v 13.90513 z m 0.0479,-15.893288 q 4.09608,0 6.03633,2.179788 1.94026,2.179788 1.94026,6.7789 0,4.575159 -1.94026,6.754947 -1.94025,2.167811 -6.03633,2.167811 H 96.534882 V 54.085702 Z" />
    </g>
  </g>
</svg>
